<?xml version="1.0" encoding="UTF-8"?>
<!DOCTYPE svg PUBLIC "-//W3C//DTD SVG 1.1//EN" "http://www.w3.org/Graphics/SVG/1.1/DTD/svg11.dtd">
<svg xmlns="http://www.w3.org/2000/svg" version="1.1" width="2332px" height="2696px" style="shape-rendering:geometricPrecision; text-rendering:geometricPrecision; image-rendering:optimizeQuality; fill-rule:evenodd; clip-rule:evenodd" xmlns:xlink="http://www.w3.org/1999/xlink">
<g><path style="opacity:0.997" fill="#fefefe" d="M 1161.5,-0.5 C 1161.83,-0.5 1162.17,-0.5 1162.5,-0.5C 1550.44,224.807 1938.44,450.14 2326.5,675.5C 2327.33,714.496 2327.83,753.496 2328,792.5C 2328.83,1192.33 2330,1592 2331.5,1991.5C 2331.5,2002.5 2331.5,2013.5 2331.5,2024.5C 1944.3,2247.93 1557.3,2471.6 1170.5,2695.5C 1169.5,2695.5 1168.5,2695.5 1167.5,2695.5C 779.975,2469.81 392.142,2244.48 4,2019.5C 2.21979,1609.34 0.719785,1199.34 -0.5,789.5C -0.5,749.833 -0.5,710.167 -0.5,670.5C 386.869,446.818 774.202,223.152 1161.5,-0.5 Z"/></g>
<g><path style="opacity:1" fill="#000000" d="M 1157.5,173.5 C 1497.86,369.431 1838.02,565.764 2178,762.5C 2178.67,1155.17 2178.67,1547.83 2178,1940.5C 1838.25,2136.96 1498.42,2333.29 1158.5,2529.5C 818.833,2333.5 479.167,2137.5 139.5,1941.5C 138.333,1548.5 138.167,1155.5 139,762.5C 478.645,566.266 818.145,369.933 1157.5,173.5 Z"/></g>
<g><path style="opacity:1" fill="#fefefe" d="M 1148.5,391.5 C 1300.39,478.119 1452.06,565.286 1603.5,653C 1605.09,685.81 1606.59,718.643 1608,751.5C 1233.84,967.247 859.837,1183.25 486,1399.5C 485.167,1463.84 485.333,1528.17 486.5,1592.5C 541.252,1624.29 596.085,1655.96 651,1687.5C 858.745,1568.05 1066.25,1448.21 1273.5,1328C 1274.5,1327.33 1275.5,1327.33 1276.5,1328C 1303.58,1343.96 1330.75,1359.79 1358,1375.5C 1358.83,1407.84 1358.67,1440.17 1357.5,1472.5C 1122.5,1608 887.5,1743.5 652.5,1879C 651.5,1879.67 650.5,1879.67 649.5,1879C 539.371,1815.7 429.371,1752.2 319.5,1688.5C 318.333,1560.17 318.167,1431.83 319,1303.5C 665.114,1103.86 1010.95,903.864 1356.5,703.5C 1287.78,663.389 1218.95,623.389 1150,583.5C 928.667,711.5 707.333,839.5 486,967.5C 485.667,1015.5 485.333,1063.5 485,1111.5C 457.317,1127.51 429.651,1143.51 402,1159.5C 374.435,1143.97 346.935,1128.3 319.5,1112.5C 318.333,1032.17 318.167,951.835 319,871.5C 595.669,711.636 872.169,551.636 1148.5,391.5 Z"/></g>
<g><path style="opacity:1" fill="#fefefe" d="M 1772.5,751.5 C 1842.52,790.592 1912.02,830.592 1981,871.5C 1981.83,1191.83 1981.67,1512.17 1980.5,1832.5C 1870.63,1896.2 1760.63,1959.7 1650.5,2023C 1647.98,2023.26 1645.65,2022.59 1643.5,2021C 1617.96,2005.97 1592.3,1991.13 1566.5,1976.5C 1565.17,1943.93 1565.17,1911.43 1566.5,1879C 1649.42,1831.29 1732.25,1783.46 1815,1735.5C 1815.83,1479.5 1815.67,1223.5 1814.5,967.5C 1800.87,959.699 1787.37,951.699 1774,943.5C 1718.83,975.753 1663.5,1007.75 1608,1039.5C 1607.83,1135.84 1607.33,1232.17 1606.5,1328.5C 1579.5,1344 1552.5,1359.5 1525.5,1375C 1524.5,1375.67 1523.5,1375.67 1522.5,1375C 1495.33,1359.17 1468.17,1343.33 1441,1327.5C 1440.67,1263.83 1440.33,1200.17 1440,1136.5C 1177.42,1287.87 914.918,1439.37 652.5,1591C 650.711,1591.52 649.044,1591.19 647.5,1590C 621.493,1574.33 595.16,1559.16 568.5,1544.5C 567.171,1511.93 567.171,1479.43 568.5,1447C 970.06,1215.39 1371.39,983.559 1772.5,751.5 Z"/></g>
<g><path style="opacity:1" fill="#fefefe" d="M 1648.5,1399.5 C 1676.39,1415.36 1704.22,1431.36 1732,1447.5C 1732.83,1479.84 1732.67,1512.17 1731.5,1544.5C 1468.83,1696.17 1206.17,1847.83 943.5,1999.5C 1011.97,2040.24 1080.97,2080.24 1150.5,2119.5C 1233.5,2071.5 1316.5,2023.5 1399.5,1975.5C 1427.13,1991.3 1454.63,2007.3 1482,2023.5C 1482.83,2055.84 1482.67,2088.17 1481.5,2120.5C 1371.23,2184.55 1260.73,2248.22 1150,2311.5C 997.768,2223.97 845.601,2136.3 693.5,2048.5C 692.171,2015.93 692.171,1983.43 693.5,1951C 1012,1767.3 1330.34,1583.47 1648.5,1399.5 Z"/></g>
</svg>
